<svg width="50" height="50" viewBox="0 0 50 50" fill="none" xmlns="http://www.w3.org/2000/svg">
<g clip-path="url(#clip0_64_2)">
<path d="M25 50C38.8071 50 50 38.8071 50 25C50 11.1929 38.8071 0 25 0C11.1929 0 0 11.1929 0 25C0 38.8071 11.1929 50 25 50Z" fill="#FDDE00"/>
<path d="M12.8321 17.6758C12.8321 17.6758 11.543 19.3066 11.9727 26.6797C11.9727 26.6797 9.15045 33.9062 10.1075 37.5977C11.0645 41.2793 14.795 41.0937 14.795 41.0937C14.795 41.0937 20.7813 46.3574 25.3712 41.7188C29.9708 37.0703 21.543 19.0723 21.543 19.0723L20.4883 12.8516C20.4883 12.8516 19.336 13.7598 19.4825 19.7461C19.629 25.7324 17.1387 21.5137 17.1387 21.5137L12.8321 17.6758Z" fill="#3C2D0C"/>
<path d="M13.3105 24.1895L11.7285 28.6426L11.1523 31.7578C11.1523 31.7578 9.18943 38.7012 17.2851 38.6035C17.2851 38.6035 23.6035 44.2578 27.7246 40.4688L28.8281 39.2676L30.7422 36.2988L33.9062 26.8653C33.9062 26.8653 32.9004 20.4004 26.5332 17.7246C26.5332 17.7246 26.0058 17.4414 25.0488 17.8223C25.0488 17.8223 22.4121 11.8848 20.7422 12.6074C20.7422 12.6074 19.3066 13.3692 20.5469 19.2188L18.3008 20.2246C18.3008 20.2246 15.8398 15.5567 13.5644 16.4942C11.4453 17.3438 13.3105 24.1895 13.3105 24.1895Z" fill="#E78C19"/>
<path d="M21.4942 15.5176L21.6895 18.1055C21.6895 18.1055 21.836 19.5899 23.4082 19.0625C23.8575 18.916 24.2481 18.6035 24.209 18.0957C24.1797 17.7149 23.9161 17.3633 23.7403 17.041C23.418 16.4258 23.1543 15.7715 22.7735 15.1758C22.5782 14.8731 22.1778 14.1992 21.7383 14.2774C21.7383 14.2774 21.4063 14.1797 21.4942 15.5176Z" fill="#EFB99D"/>
<path d="M14.58 18.4277C14.6093 18.4082 15.2539 17.5976 16.5918 19.5703C17.9297 21.543 17.7929 21.2891 17.7929 21.2891C17.7929 21.2891 18.5156 22.0801 17.041 23.0957C16.7187 23.3301 16.3672 23.5254 15.9961 23.6816C15.7617 23.7695 15.5175 23.8183 15.2734 23.8183C14.9902 23.8086 14.8632 23.6621 14.7949 23.3984C14.5703 22.5391 14.3164 21.6797 14.1894 20.8008C14.0918 20.1172 13.8965 18.8672 14.58 18.4277Z" fill="#EFB99D"/>
<path d="M30.127 22.4023C30.127 22.8711 29.4434 23.252 28.5937 23.252C27.7441 23.252 27.0605 22.8711 27.0605 22.4023C27.0605 21.9336 27.7637 21.2402 28.6035 21.2402C29.4434 21.2402 30.127 21.9336 30.127 22.4023Z" fill="#FBFBFB"/>
<path d="M21.2848 26.0704C21.739 25.2678 21.6886 24.3802 21.1723 24.088C20.656 23.7958 19.8692 24.2097 19.415 25.0123C18.9607 25.815 19.0111 26.7025 19.5274 26.9947C20.0437 27.2869 20.8305 26.8731 21.2848 26.0704Z" fill="#FBFBFB"/>
<path d="M23.457 29.9512L27.6465 27.7735C27.6465 27.7735 32.8613 25.0488 34.1309 27.1485C35.4004 29.2481 34.1309 32.461 34.1309 32.461C34.1309 32.461 33.584 36.2207 29.7461 36.5528L27.6856 36.836L25.0488 36.9043C25.0488 36.9043 20.8106 37.1485 17.6953 34.8438L16.709 33.6426C16.709 33.6426 14.7266 30.918 16.1133 28.9551C17.5 26.9922 22.2461 30.0293 22.2461 30.0293C22.2461 30.0293 22.9102 30.3906 23.457 29.9512Z" fill="#FBFBFB"/>
<path d="M32.959 19.0918C33.5145 19.0918 33.9648 18.6415 33.9648 18.0859C33.9648 17.5304 33.5145 17.0801 32.959 17.0801C32.4035 17.0801 31.9531 17.5304 31.9531 18.0859C31.9531 18.6415 32.4035 19.0918 32.959 19.0918Z" fill="#E72D36"/>
<path d="M30.7324 16.6211C31.2879 16.6211 31.7383 16.1708 31.7383 15.6152C31.7383 15.0597 31.2879 14.6094 30.7324 14.6094C30.1769 14.6094 29.7266 15.0597 29.7266 15.6152C29.7266 16.1708 30.1769 16.6211 30.7324 16.6211Z" fill="#E72D36"/>
<path d="M27.168 15.8301C27.7235 15.8301 28.1738 15.3797 28.1738 14.8242C28.1738 14.2687 27.7235 13.8184 27.168 13.8184C26.6124 13.8184 26.1621 14.2687 26.1621 14.8242C26.1621 15.3797 26.6124 15.8301 27.168 15.8301Z" fill="#E72D36"/>
<path d="M27.959 7.69531C28.1738 10.6641 27.7441 13.3496 27.0215 13.3496C26.2988 13.3496 25.3418 10.4492 25.3418 7.69531C25.3418 6.5625 25.9375 6.37695 26.6602 6.37695C27.3926 6.37695 27.8809 6.5625 27.959 7.69531Z" fill="#E72D36"/>
<path d="M34.6192 9.54099C33.5254 12.3047 31.9727 14.541 31.3281 14.2285C30.6836 13.916 31.0742 10.8886 32.2754 8.40818C32.7735 7.38278 33.3887 7.48044 34.0332 7.79294C34.6778 8.11521 35.0391 8.4863 34.6192 9.54099Z" fill="#E72D36"/>
<path d="M39.3848 14.9317C36.9727 16.6797 34.4727 17.7344 34.0918 17.1192C33.711 16.5039 35.6739 14.1699 38.0079 12.7149C38.9747 12.1192 39.4434 12.5293 39.8243 13.1348C40.1954 13.75 40.3028 14.2578 39.3848 14.9317Z" fill="#E72D36"/>
<path d="M23.2617 27.0312C23.1738 27.041 23.0859 27.0508 22.998 27.0605C23.0078 27.0898 23.0175 27.1191 23.0175 27.1582C23.0175 27.4609 22.539 27.7148 21.9433 27.7344C21.9433 27.7637 21.9335 27.7832 21.9433 27.8125C21.9726 28.1836 22.6171 28.4375 23.3691 28.3789C24.1308 28.3203 24.7265 27.9687 24.6972 27.5976C24.6581 27.2265 24.0234 26.9726 23.2617 27.0312Z" fill="black"/>
<path d="M28.5546 25.7226C28.4667 25.7324 28.3789 25.7422 28.291 25.7519C28.3007 25.7812 28.3105 25.8105 28.3105 25.8496C28.3105 26.1523 27.832 26.4062 27.2363 26.4258C27.2363 26.4551 27.2265 26.4746 27.2363 26.5039C27.2656 26.875 27.9101 27.1289 28.6621 27.0703C29.4238 27.0117 30.0195 26.6601 29.9902 26.289C29.9609 25.918 29.3164 25.664 28.5546 25.7226Z" fill="black"/>
<path d="M30.293 27.2754C30.293 27.2754 28.1934 27.8906 28.3204 29.0723C28.4473 30.2539 30.9766 30.8691 30.9766 30.8691C30.9766 30.8691 31.6602 31.1426 32.0508 30.4883C32.4414 29.8437 33.0176 28.9648 32.8614 27.7051C32.8614 27.7051 32.8125 26.7676 30.293 27.2754Z" fill="black"/>
</g>
<defs>
<clipPath id="clip0_64_2">
<rect width="50" height="50" fill="white"/>
</clipPath>
</defs>
</svg>
