<svg width="323" height="105" viewBox="0 0 323 105" fill="none" xmlns="http://www.w3.org/2000/svg">
<path d="M174.481 83.36C174.481 84.5867 174.654 85.48 175.001 86.04C175.348 86.5733 175.894 86.84 176.641 86.84C178.508 86.84 179.774 86.08 180.441 84.56C181.134 83.04 181.481 80.96 181.481 78.32C181.481 77.04 181.401 75.2533 181.241 72.96C181.081 70.7733 181.001 69.1467 181.001 68.08C178.148 68.08 176.721 67.52 176.721 66.4C176.721 65.7333 176.828 65.2933 177.041 65.08C177.281 64.8667 177.641 64.76 178.121 64.76C178.414 64.76 178.734 64.7867 179.081 64.84C179.428 64.8667 179.681 64.88 179.841 64.88C180.374 64.96 180.881 65 181.361 65C182.241 65 183.054 64.96 183.801 64.88C184.761 64.8267 185.481 64.8 185.961 64.8C186.921 64.8 187.588 64.8933 187.961 65.08C188.361 65.2667 188.561 65.6267 188.561 66.16C188.561 66.72 188.414 67.12 188.121 67.36C187.854 67.5733 187.454 67.7333 186.921 67.84L185.081 68.04C185.054 69.8 185.161 71.9067 185.401 74.36C185.428 74.7333 185.481 75.44 185.561 76.48C185.641 77.4933 185.681 78.4267 185.681 79.28C185.681 82.7467 184.948 85.4267 183.481 87.32C182.014 89.1867 179.828 90.12 176.921 90.12C175.108 90.12 173.588 89.6 172.361 88.56C171.161 87.4933 170.561 85.9067 170.561 83.8C170.561 83.2133 170.774 82.7467 171.201 82.4C171.628 82.0267 172.201 81.84 172.921 81.84C173.428 81.84 173.814 82.0133 174.081 82.36C174.348 82.7067 174.481 83.04 174.481 83.36ZM196.73 66.8C196.73 67.5733 196.704 68.6 196.65 69.88L196.61 72.48C196.61 75.0133 196.797 77.1333 197.17 78.84C197.704 81.24 198.504 83.0933 199.57 84.4C200.557 85.5467 201.77 86.12 203.21 86.12C204.33 86.12 205.33 85.7867 206.21 85.12C207.09 84.4267 207.77 83.5733 208.25 82.56C209.05 80.9067 209.45 78.8667 209.45 76.44C209.45 74.9733 209.357 73.24 209.17 71.24C209.01 69 208.93 67.32 208.93 66.2C208.93 65.6133 209.277 65.24 209.97 65.08C210.664 64.8933 211.384 64.8 212.13 64.8C212.397 64.8 212.704 64.9733 213.05 65.32C213.397 65.6667 213.57 66.04 213.57 66.44C213.57 67.24 213.53 68 213.45 68.72C213.397 69.52 213.37 70.08 213.37 70.4C213.37 71.4133 213.424 72.8267 213.53 74.64C213.557 75.0933 213.584 75.64 213.61 76.28C213.637 76.92 213.65 77.6533 213.65 78.48C213.65 80.2933 213.21 82.1067 212.33 83.92C211.477 85.7067 210.277 87.1867 208.73 88.36C207.184 89.5067 205.437 90.08 203.49 90.08C200.504 90.08 198.17 89.12 196.49 87.2C194.81 85.2533 193.664 82.7467 193.05 79.68C192.704 77.92 192.477 76.08 192.37 74.16C192.29 72.24 192.25 69.6667 192.25 66.44C192.25 66.0133 192.45 65.6133 192.85 65.24C193.277 64.8667 193.73 64.68 194.21 64.68C195.89 64.68 196.73 65.3867 196.73 66.8ZM237.014 83.12C237.014 84.3733 236.747 85.3867 236.214 86.16C235.68 86.9333 234.76 87.6933 233.454 88.44C232.574 88.9733 231.56 89.3867 230.414 89.68C229.267 89.9467 228.107 90.08 226.934 90.08C226.214 90.08 225.374 89.9467 224.414 89.68C223.48 89.3867 222.72 89.1067 222.134 88.84L221.454 88.24C220.254 87.2533 219.414 86.4667 218.934 85.88C218.48 85.2667 218.254 84.52 218.254 83.64C218.254 82.9467 218.414 82.4267 218.734 82.08C219.054 81.7333 219.574 81.56 220.294 81.56C220.667 81.56 221.014 81.68 221.334 81.92C221.654 82.16 221.934 82.4933 222.174 82.92C222.84 84.0933 223.627 84.96 224.534 85.52C225.467 86.0533 226.56 86.32 227.814 86.32C228.987 86.32 230.174 85.96 231.374 85.24C232.36 84.6267 232.854 84.0267 232.854 83.44C232.854 82.4 232.387 81.5333 231.454 80.84C230.547 80.1467 229.24 79.52 227.534 78.96C226.494 78.5867 224.934 77.8933 222.854 76.88C221.44 76.1867 220.387 75.3333 219.694 74.32C219 73.3067 218.654 72.24 218.654 71.12C218.654 70.1067 219 69.12 219.694 68.16C220.414 67.1733 221.28 66.44 222.294 65.96C222.827 65.6933 223.68 65.4133 224.854 65.12C226.027 64.8 226.907 64.64 227.494 64.64C228.587 64.64 229.534 64.7733 230.334 65.04C231.134 65.28 231.92 65.6267 232.694 66.08C233.867 66.7467 234.734 67.3467 235.294 67.88C235.854 68.4133 236.134 69.08 236.134 69.88C236.134 70.36 235.947 70.7867 235.574 71.16C235.227 71.5333 234.614 71.72 233.734 71.72C233.52 71.72 233.307 71.6267 233.094 71.44C232.88 71.2533 232.614 70.9733 232.294 70.6C231.867 70.04 231.454 69.6667 231.054 69.48C230.947 69.4533 230.507 69.28 229.734 68.96C228.987 68.64 228.054 68.48 226.934 68.48C225.867 68.48 224.92 68.7333 224.094 69.24C223.267 69.72 222.854 70.4267 222.854 71.36C222.854 72.2933 223.694 73.0533 225.374 73.64C227.16 74.3333 228.64 74.9333 229.814 75.44C231.014 75.9467 232.174 76.5467 233.294 77.24C234.574 78.0133 235.507 78.8267 236.094 79.68C236.707 80.5333 237.014 81.68 237.014 83.12ZM267.595 66.88C267.755 66.32 267.995 65.8667 268.315 65.52C268.635 65.1467 268.981 64.96 269.355 64.96C270.261 64.96 270.915 65.1333 271.315 65.48C271.715 65.8267 271.915 66.4267 271.915 67.28C271.915 67.52 271.728 68.2 271.355 69.32C270.528 71.8533 269.621 74.9867 268.635 78.72C268.395 79.5733 268.195 80.32 268.035 80.96C267.901 81.6 267.781 82.1333 267.675 82.56C267.035 85.3067 266.475 87.3733 265.995 88.76C265.835 89.16 265.555 89.48 265.155 89.72C264.755 89.9333 264.328 90.04 263.875 90.04C263.421 90.04 262.968 89.9467 262.515 89.76C262.088 89.5467 261.781 89.3067 261.595 89.04C260.955 87.7867 259.995 85.52 258.715 82.24C257.461 78.96 256.475 76.1733 255.755 73.88C254.501 77.1067 253.195 80.8933 251.835 85.24C251.301 86.9733 250.928 88.1467 250.715 88.76C250.528 89.16 250.261 89.48 249.915 89.72C249.568 89.9333 249.181 90.04 248.755 90.04C248.275 90.04 247.808 89.9467 247.355 89.76C246.901 89.5467 246.595 89.3067 246.435 89.04C246.088 88.4533 245.715 87.5467 245.315 86.32C244.941 85.0933 244.435 83.3733 243.795 81.16L242.795 77.76C242.101 75.5467 241.501 73.28 240.995 70.96C240.488 68.64 240.235 67.2533 240.235 66.8C240.235 66.24 240.515 65.8 241.075 65.48C241.635 65.1333 242.195 64.96 242.755 64.96C243.075 64.96 243.408 65.0667 243.755 65.28C244.101 65.4667 244.328 65.8 244.435 66.28C245.368 71.2667 246.741 77.0533 248.555 83.64C249.301 81.8 250.395 78.56 251.835 73.92C252.021 73.3067 252.301 72.4 252.675 71.2C253.075 70 253.408 69 253.675 68.2C253.781 67.8 254.048 67.48 254.475 67.24C254.928 67 255.381 66.88 255.835 66.88C256.421 66.88 256.901 67.0267 257.275 67.32C257.648 67.6133 257.888 67.9333 257.995 68.28C258.048 68.44 258.595 70.28 259.635 73.8C260.675 77.32 261.901 80.6 263.315 83.64C263.848 82.0667 264.488 79.5467 265.235 76.08L265.835 73.44C266.555 70.6133 267.141 68.4267 267.595 66.88ZM293.974 89.4C293.627 88.9467 293.334 88.4533 293.094 87.92C292.854 87.36 292.6 86.6933 292.334 85.92C292.28 85.7867 292.12 85.3867 291.854 84.72C291.614 84.0533 291.334 83.48 291.014 83C289.334 83.24 287.96 83.36 286.894 83.36C286.307 83.36 285.654 83.3467 284.934 83.32C284.24 83.2667 283.72 83.24 283.374 83.24C282.04 83.1333 280.974 83.08 280.174 83.08C279.854 83.5067 279.574 83.96 279.334 84.44C279.12 84.92 278.84 85.64 278.494 86.6C278.014 87.9867 277.6 88.9733 277.254 89.56C277.014 89.96 276.547 90.16 275.854 90.16C275.267 90.16 274.72 90.04 274.214 89.8C273.734 89.5333 273.494 89.1733 273.494 88.72C273.707 87.7067 274.04 86.64 274.494 85.52C274.974 84.3733 275.654 82.8533 276.534 80.96L278.134 77.04C279.014 74.8 279.814 72.88 280.534 71.28C281.28 69.68 282.254 67.7867 283.454 65.6C283.614 65.28 283.88 65.0133 284.254 64.8C284.627 64.56 285.04 64.44 285.494 64.44C286 64.44 286.36 64.48 286.574 64.56C286.814 64.6133 287 64.72 287.134 64.88C287.267 65.0133 287.467 65.3067 287.734 65.76C288.64 67.1733 289.414 68.6267 290.054 70.12C290.72 71.6133 291.56 73.68 292.574 76.32L293.414 78.44C294.16 80.36 294.8 81.9733 295.334 83.28C295.894 84.56 296.507 85.7333 297.174 86.8C297.6 87.4933 297.814 87.9733 297.814 88.24C297.814 88.88 297.614 89.3733 297.214 89.72C296.84 90.04 296.347 90.2 295.734 90.2C294.96 90.2 294.374 89.9333 293.974 89.4ZM289.854 79.72C289.427 78.8133 288.814 77.24 288.014 75C287.187 72.6 286.36 70.6933 285.534 69.28C285.027 70.56 284.28 72.2133 283.294 74.24C282.627 75.4933 281.867 77.3067 281.014 79.68C282.72 79.8933 284.56 80 286.534 80C287.947 80 289.054 79.9067 289.854 79.72ZM311.199 80.96C310.159 80.96 309.279 80.9333 308.559 80.88C307.866 80.8 306.946 80.68 305.799 80.52L305.759 84.72C305.733 85.44 305.719 86.4667 305.719 87.8C305.719 88.4933 305.519 89.04 305.119 89.44C304.746 89.8133 304.319 90 303.839 90C302.959 90 302.306 89.8933 301.879 89.68C301.453 89.44 301.239 89.0267 301.239 88.44C301.239 87.6667 301.306 86.5733 301.439 85.16C301.733 82.12 301.879 79 301.879 75.8C301.879 72.8133 301.786 70 301.599 67.36C301.626 66.9867 301.813 66.56 302.159 66.08C302.533 65.6 302.999 65.3333 303.559 65.28C304.173 65.28 305.146 65.1733 306.479 64.96C307.866 64.7467 308.919 64.64 309.639 64.64C311.826 64.64 313.519 64.8533 314.719 65.28C315.946 65.7067 317.173 66.4133 318.399 67.4C319.733 69.48 320.399 70.9467 320.399 71.8C320.399 73.5867 320.039 75.1733 319.319 76.56C318.599 77.9467 317.546 79.0267 316.159 79.8C314.773 80.5733 313.119 80.96 311.199 80.96ZM310.279 68.04C309.426 68.04 308.679 68.0933 308.039 68.2C307.426 68.28 306.679 68.4267 305.799 68.64C305.906 71.0933 305.959 72.88 305.959 74C305.959 75.1467 305.919 76.1067 305.839 76.88C306.986 77.12 307.893 77.28 308.559 77.36C309.226 77.4133 309.973 77.44 310.799 77.44C312.773 77.44 314.159 76.9333 314.959 75.92C315.786 74.88 316.199 73.68 316.199 72.32C316.199 71.92 316.079 71.4267 315.839 70.84C315.599 70.2533 315.386 69.8667 315.199 69.68C314.479 69.04 313.773 68.6133 313.079 68.4C312.413 68.16 311.479 68.04 310.279 68.04Z" fill="white"/>
<path d="M102.618 41L138.349 89H66.8872L102.618 41Z" fill="#FFB658"/>
<g filter="url(#filter0_d_23_82)">
<ellipse cx="54.8186" cy="46" rx="50.8186" ry="46" fill="#FFFF66" fill-opacity="0.12549" shape-rendering="crispEdges"/>
</g>
<defs>
<filter id="filter0_d_23_82" x="0" y="0" width="109.637" height="100" filterUnits="userSpaceOnUse" color-interpolation-filters="sRGB">
<feFlood flood-opacity="0" result="BackgroundImageFix"/>
<feColorMatrix in="SourceAlpha" type="matrix" values="0 0 0 0 0 0 0 0 0 0 0 0 0 0 0 0 0 0 127 0" result="hardAlpha"/>
<feOffset dy="4"/>
<feGaussianBlur stdDeviation="2"/>
<feComposite in2="hardAlpha" operator="out"/>
<feColorMatrix type="matrix" values="0 0 0 0 0 0 0 0 0 0 0 0 0 0 0 0 0 0 0.25 0"/>
<feBlend mode="normal" in2="BackgroundImageFix" result="effect1_dropShadow_23_82"/>
<feBlend mode="normal" in="SourceGraphic" in2="effect1_dropShadow_23_82" result="shape"/>
</filter>
</defs>
</svg>
