<svg width="323" height="105" viewBox="0 0 323 105" fill="none" xmlns="http://www.w3.org/2000/svg">
<path d="M175.44 83.36C175.44 84.5867 175.613 85.48 175.96 86.04C176.307 86.5733 176.853 86.84 177.6 86.84C179.467 86.84 180.733 86.08 181.4 84.56C182.093 83.04 182.44 80.96 182.44 78.32C182.44 77.04 182.36 75.2533 182.2 72.96C182.04 70.7733 181.96 69.1467 181.96 68.08C179.107 68.08 177.68 67.52 177.68 66.4C177.68 65.7333 177.787 65.2933 178 65.08C178.24 64.8667 178.6 64.76 179.08 64.76C179.373 64.76 179.693 64.7867 180.04 64.84C180.387 64.8667 180.64 64.88 180.8 64.88C181.333 64.96 181.84 65 182.32 65C183.2 65 184.013 64.96 184.76 64.88C185.72 64.8267 186.44 64.8 186.92 64.8C187.88 64.8 188.547 64.8933 188.92 65.08C189.32 65.2667 189.52 65.6267 189.52 66.16C189.52 66.72 189.373 67.12 189.08 67.36C188.813 67.5733 188.413 67.7333 187.88 67.84L186.04 68.04C186.013 69.8 186.12 71.9067 186.36 74.36C186.387 74.7333 186.44 75.44 186.52 76.48C186.6 77.4933 186.64 78.4267 186.64 79.28C186.64 82.7467 185.907 85.4267 184.44 87.32C182.973 89.1867 180.787 90.12 177.88 90.12C176.067 90.12 174.547 89.6 173.32 88.56C172.12 87.4933 171.52 85.9067 171.52 83.8C171.52 83.2133 171.733 82.7467 172.16 82.4C172.587 82.0267 173.16 81.84 173.88 81.84C174.387 81.84 174.773 82.0133 175.04 82.36C175.307 82.7067 175.44 83.04 175.44 83.36ZM197.689 66.8C197.689 67.5733 197.663 68.6 197.609 69.88L197.569 72.48C197.569 75.0133 197.756 77.1333 198.129 78.84C198.663 81.24 199.463 83.0933 200.529 84.4C201.516 85.5467 202.729 86.12 204.169 86.12C205.289 86.12 206.289 85.7867 207.169 85.12C208.049 84.4267 208.729 83.5733 209.209 82.56C210.009 80.9067 210.409 78.8667 210.409 76.44C210.409 74.9733 210.316 73.24 210.129 71.24C209.969 69 209.889 67.32 209.889 66.2C209.889 65.6133 210.236 65.24 210.929 65.08C211.623 64.8933 212.343 64.8 213.089 64.8C213.356 64.8 213.663 64.9733 214.009 65.32C214.356 65.6667 214.529 66.04 214.529 66.44C214.529 67.24 214.489 68 214.409 68.72C214.356 69.52 214.329 70.08 214.329 70.4C214.329 71.4133 214.383 72.8267 214.489 74.64C214.516 75.0933 214.543 75.64 214.569 76.28C214.596 76.92 214.609 77.6533 214.609 78.48C214.609 80.2933 214.169 82.1067 213.289 83.92C212.436 85.7067 211.236 87.1867 209.689 88.36C208.143 89.5067 206.396 90.08 204.449 90.08C201.463 90.08 199.129 89.12 197.449 87.2C195.769 85.2533 194.623 82.7467 194.009 79.68C193.663 77.92 193.436 76.08 193.329 74.16C193.249 72.24 193.209 69.6667 193.209 66.44C193.209 66.0133 193.409 65.6133 193.809 65.24C194.236 64.8667 194.689 64.68 195.169 64.68C196.849 64.68 197.689 65.3867 197.689 66.8ZM237.973 83.12C237.973 84.3733 237.706 85.3867 237.173 86.16C236.639 86.9333 235.719 87.6933 234.413 88.44C233.533 88.9733 232.519 89.3867 231.373 89.68C230.226 89.9467 229.066 90.08 227.893 90.08C227.173 90.08 226.333 89.9467 225.373 89.68C224.439 89.3867 223.679 89.1067 223.093 88.84L222.413 88.24C221.213 87.2533 220.373 86.4667 219.893 85.88C219.439 85.2667 219.213 84.52 219.213 83.64C219.213 82.9467 219.373 82.4267 219.693 82.08C220.013 81.7333 220.533 81.56 221.253 81.56C221.626 81.56 221.973 81.68 222.293 81.92C222.613 82.16 222.893 82.4933 223.133 82.92C223.799 84.0933 224.586 84.96 225.493 85.52C226.426 86.0533 227.519 86.32 228.773 86.32C229.946 86.32 231.133 85.96 232.333 85.24C233.319 84.6267 233.813 84.0267 233.813 83.44C233.813 82.4 233.346 81.5333 232.413 80.84C231.506 80.1467 230.199 79.52 228.493 78.96C227.453 78.5867 225.893 77.8933 223.813 76.88C222.399 76.1867 221.346 75.3333 220.653 74.32C219.959 73.3067 219.613 72.24 219.613 71.12C219.613 70.1067 219.959 69.12 220.653 68.16C221.373 67.1733 222.239 66.44 223.253 65.96C223.786 65.6933 224.639 65.4133 225.813 65.12C226.986 64.8 227.866 64.64 228.453 64.64C229.546 64.64 230.493 64.7733 231.293 65.04C232.093 65.28 232.879 65.6267 233.653 66.08C234.826 66.7467 235.693 67.3467 236.253 67.88C236.813 68.4133 237.093 69.08 237.093 69.88C237.093 70.36 236.906 70.7867 236.533 71.16C236.186 71.5333 235.573 71.72 234.693 71.72C234.479 71.72 234.266 71.6267 234.053 71.44C233.839 71.2533 233.573 70.9733 233.253 70.6C232.826 70.04 232.413 69.6667 232.013 69.48C231.906 69.4533 231.466 69.28 230.693 68.96C229.946 68.64 229.013 68.48 227.893 68.48C226.826 68.48 225.879 68.7333 225.053 69.24C224.226 69.72 223.813 70.4267 223.813 71.36C223.813 72.2933 224.653 73.0533 226.333 73.64C228.119 74.3333 229.599 74.9333 230.773 75.44C231.973 75.9467 233.133 76.5467 234.253 77.24C235.533 78.0133 236.466 78.8267 237.053 79.68C237.666 80.5333 237.973 81.68 237.973 83.12ZM268.554 66.88C268.714 66.32 268.954 65.8667 269.274 65.52C269.594 65.1467 269.94 64.96 270.314 64.96C271.22 64.96 271.874 65.1333 272.274 65.48C272.674 65.8267 272.874 66.4267 272.874 67.28C272.874 67.52 272.687 68.2 272.314 69.32C271.487 71.8533 270.58 74.9867 269.594 78.72C269.354 79.5733 269.154 80.32 268.994 80.96C268.86 81.6 268.74 82.1333 268.634 82.56C267.994 85.3067 267.434 87.3733 266.954 88.76C266.794 89.16 266.514 89.48 266.114 89.72C265.714 89.9333 265.287 90.04 264.834 90.04C264.38 90.04 263.927 89.9467 263.474 89.76C263.047 89.5467 262.74 89.3067 262.554 89.04C261.914 87.7867 260.954 85.52 259.674 82.24C258.42 78.96 257.434 76.1733 256.714 73.88C255.46 77.1067 254.154 80.8933 252.794 85.24C252.26 86.9733 251.887 88.1467 251.674 88.76C251.487 89.16 251.22 89.48 250.874 89.72C250.527 89.9333 250.14 90.04 249.714 90.04C249.234 90.04 248.767 89.9467 248.314 89.76C247.86 89.5467 247.554 89.3067 247.394 89.04C247.047 88.4533 246.674 87.5467 246.274 86.32C245.9 85.0933 245.394 83.3733 244.754 81.16L243.754 77.76C243.06 75.5467 242.46 73.28 241.954 70.96C241.447 68.64 241.194 67.2533 241.194 66.8C241.194 66.24 241.474 65.8 242.034 65.48C242.594 65.1333 243.154 64.96 243.714 64.96C244.034 64.96 244.367 65.0667 244.714 65.28C245.06 65.4667 245.287 65.8 245.394 66.28C246.327 71.2667 247.7 77.0533 249.514 83.64C250.26 81.8 251.354 78.56 252.794 73.92C252.98 73.3067 253.26 72.4 253.634 71.2C254.034 70 254.367 69 254.634 68.2C254.74 67.8 255.007 67.48 255.434 67.24C255.887 67 256.34 66.88 256.794 66.88C257.38 66.88 257.86 67.0267 258.234 67.32C258.607 67.6133 258.847 67.9333 258.954 68.28C259.007 68.44 259.554 70.28 260.594 73.8C261.634 77.32 262.86 80.6 264.274 83.64C264.807 82.0667 265.447 79.5467 266.194 76.08L266.794 73.44C267.514 70.6133 268.1 68.4267 268.554 66.88ZM294.932 89.4C294.586 88.9467 294.293 88.4533 294.053 87.92C293.813 87.36 293.559 86.6933 293.293 85.92C293.239 85.7867 293.079 85.3867 292.813 84.72C292.573 84.0533 292.293 83.48 291.973 83C290.293 83.24 288.919 83.36 287.853 83.36C287.266 83.36 286.613 83.3467 285.893 83.32C285.199 83.2667 284.679 83.24 284.333 83.24C282.999 83.1333 281.933 83.08 281.133 83.08C280.813 83.5067 280.533 83.96 280.293 84.44C280.079 84.92 279.799 85.64 279.453 86.6C278.973 87.9867 278.559 88.9733 278.213 89.56C277.973 89.96 277.506 90.16 276.813 90.16C276.226 90.16 275.679 90.04 275.173 89.8C274.693 89.5333 274.453 89.1733 274.453 88.72C274.666 87.7067 274.999 86.64 275.453 85.52C275.933 84.3733 276.613 82.8533 277.493 80.96L279.092 77.04C279.973 74.8 280.773 72.88 281.493 71.28C282.239 69.68 283.213 67.7867 284.413 65.6C284.573 65.28 284.839 65.0133 285.213 64.8C285.586 64.56 285.999 64.44 286.453 64.44C286.959 64.44 287.319 64.48 287.533 64.56C287.773 64.6133 287.959 64.72 288.093 64.88C288.226 65.0133 288.426 65.3067 288.693 65.76C289.599 67.1733 290.373 68.6267 291.013 70.12C291.679 71.6133 292.519 73.68 293.533 76.32L294.372 78.44C295.119 80.36 295.759 81.9733 296.293 83.28C296.853 84.56 297.466 85.7333 298.133 86.8C298.559 87.4933 298.773 87.9733 298.773 88.24C298.773 88.88 298.573 89.3733 298.173 89.72C297.799 90.04 297.306 90.2 296.693 90.2C295.919 90.2 295.333 89.9333 294.932 89.4ZM290.813 79.72C290.386 78.8133 289.773 77.24 288.973 75C288.146 72.6 287.319 70.6933 286.493 69.28C285.986 70.56 285.239 72.2133 284.253 74.24C283.586 75.4933 282.826 77.3067 281.973 79.68C283.679 79.8933 285.519 80 287.493 80C288.906 80 290.013 79.9067 290.813 79.72ZM312.158 80.96C311.118 80.96 310.238 80.9333 309.518 80.88C308.825 80.8 307.905 80.68 306.758 80.52L306.718 84.72C306.692 85.44 306.678 86.4667 306.678 87.8C306.678 88.4933 306.478 89.04 306.078 89.44C305.705 89.8133 305.278 90 304.798 90C303.918 90 303.265 89.8933 302.838 89.68C302.412 89.44 302.198 89.0267 302.198 88.44C302.198 87.6667 302.265 86.5733 302.398 85.16C302.692 82.12 302.838 79 302.838 75.8C302.838 72.8133 302.745 70 302.558 67.36C302.585 66.9867 302.772 66.56 303.118 66.08C303.492 65.6 303.958 65.3333 304.518 65.28C305.132 65.28 306.105 65.1733 307.438 64.96C308.825 64.7467 309.878 64.64 310.598 64.64C312.785 64.64 314.478 64.8533 315.678 65.28C316.905 65.7067 318.132 66.4133 319.358 67.4C320.692 69.48 321.358 70.9467 321.358 71.8C321.358 73.5867 320.998 75.1733 320.278 76.56C319.558 77.9467 318.505 79.0267 317.118 79.8C315.732 80.5733 314.078 80.96 312.158 80.96ZM311.238 68.04C310.385 68.04 309.638 68.0933 308.998 68.2C308.385 68.28 307.638 68.4267 306.758 68.64C306.865 71.0933 306.918 72.88 306.918 74C306.918 75.1467 306.878 76.1067 306.798 76.88C307.945 77.12 308.852 77.28 309.518 77.36C310.185 77.4133 310.932 77.44 311.758 77.44C313.732 77.44 315.118 76.9333 315.918 75.92C316.745 74.88 317.158 73.68 317.158 72.32C317.158 71.92 317.038 71.4267 316.798 70.84C316.558 70.2533 316.345 69.8667 316.158 69.68C315.438 69.04 314.732 68.6133 314.038 68.4C313.372 68.16 312.438 68.04 311.238 68.04Z" fill="black"/>
<g filter="url(#filter0_d_19_75)">
<ellipse cx="54.5" cy="46" rx="50.5" ry="46" fill="#FF6200"/>
</g>
<path d="M102 41L137.507 89H66.493L102 41Z" fill="#FFB658"/>
<defs>
<filter id="filter0_d_19_75" x="0" y="0" width="109" height="100" filterUnits="userSpaceOnUse" color-interpolation-filters="sRGB">
<feFlood flood-opacity="0" result="BackgroundImageFix"/>
<feColorMatrix in="SourceAlpha" type="matrix" values="0 0 0 0 0 0 0 0 0 0 0 0 0 0 0 0 0 0 127 0" result="hardAlpha"/>
<feOffset dy="4"/>
<feGaussianBlur stdDeviation="2"/>
<feComposite in2="hardAlpha" operator="out"/>
<feColorMatrix type="matrix" values="0 0 0 0 0 0 0 0 0 0 0 0 0 0 0 0 0 0 0.25 0"/>
<feBlend mode="normal" in2="BackgroundImageFix" result="effect1_dropShadow_19_75"/>
<feBlend mode="normal" in="SourceGraphic" in2="effect1_dropShadow_19_75" result="shape"/>
</filter>
</defs>
</svg>
