<svg width="50" height="50" viewBox="0 0 50 50" fill="none" xmlns="http://www.w3.org/2000/svg">
<g clip-path="url(#clip0_64_34)">
<path d="M50 25C50 38.8086 38.8086 50 25 50C11.1914 50 0 38.8086 0 25C0 11.1914 11.1914 0 25 0C38.8086 0 50 11.1914 50 25Z" fill="#FFD15C"/>
<path d="M18.8965 14.8731C17.8809 15.0195 18.4473 15.8887 18.4473 15.8887L18.418 16.1328C19.873 18.6426 22.2754 21.2793 24.7266 23.0371C26.5332 24.3262 27.8809 26.2305 28.5352 28.3984C29.1797 30.5371 29.0625 32.7539 28.2227 34.4727C27.207 36.543 25.2832 37.7441 22.8223 37.8613C20.3711 37.9785 17.4609 37.0117 14.1699 34.9902C14.1406 35.0684 14.1016 35.1465 14.0625 35.2148C16.9141 38.1543 20.2148 39.9121 23.6426 40.3125C27.1094 40.7227 30.6641 39.7461 33.6719 37.5879C33.5937 37.5879 33.5352 37.5684 33.4863 37.5391C43.6035 29.1797 27.041 13.7109 18.8965 14.8731Z" fill="white"/>
<path d="M45.1759 26.1133C45.1661 25.9277 45.1563 25.7031 45.1173 25.4395C44.9903 24.4141 44.5802 22.8418 43.3887 21.1719C43.3302 21.0937 43.2716 21.0156 43.213 20.9375C43.2032 20.918 43.1837 20.8984 43.1739 20.8789C43.1251 20.8105 43.0665 20.7422 43.0177 20.6738L43.0079 20.6641C42.9493 20.5957 42.8907 20.5176 42.8321 20.4492C42.8223 20.4297 42.8028 20.4199 42.793 20.4004C42.7442 20.3418 42.6856 20.2734 42.6368 20.2148C42.627 20.2051 42.627 20.2051 42.6173 20.1953C42.5587 20.127 42.5001 20.0684 42.4415 20C42.4317 19.9902 42.4122 19.9707 42.4024 19.9609C42.3536 19.9023 42.3048 19.8535 42.2559 19.8047C42.2462 19.7949 42.2364 19.7852 42.2364 19.7754C42.1778 19.7168 42.1192 19.6582 42.0704 19.6094C42.0606 19.5996 42.0509 19.5898 42.0313 19.5703C41.9825 19.5215 41.9337 19.4727 41.8848 19.4336C41.8751 19.4238 41.8653 19.4141 41.8555 19.4043C41.797 19.3555 41.7481 19.3066 41.6895 19.2578C41.6798 19.248 41.67 19.2383 41.6602 19.2285C41.6114 19.1895 41.5626 19.1504 41.5235 19.1113C41.5138 19.1016 41.504 19.0918 41.4942 19.082C41.4454 19.0332 41.3868 18.9941 41.338 18.9551C41.3282 18.9453 41.3184 18.9355 41.3087 18.9258C41.2696 18.8867 41.2208 18.8574 41.1817 18.8184C41.172 18.8086 41.1524 18.7988 41.1427 18.7891C41.0938 18.75 41.045 18.7109 40.9962 18.6816C40.9864 18.6719 40.9766 18.6621 40.9669 18.6621C40.9278 18.6328 40.8887 18.6035 40.8497 18.5742C40.8399 18.5645 40.8204 18.5547 40.8106 18.5449C40.7618 18.5156 40.7227 18.4863 40.6739 18.4473C40.6641 18.4375 40.6544 18.4277 40.6348 18.4277C40.5958 18.4082 40.5665 18.3789 40.5372 18.3594C40.5177 18.3496 40.5079 18.3398 40.4884 18.3301C40.4493 18.3105 40.4102 18.2812 40.3809 18.2617C40.3614 18.252 40.3419 18.2422 40.3321 18.2324C40.3028 18.2129 40.2833 18.2031 40.254 18.1836C40.2345 18.1738 40.2149 18.1641 40.1954 18.1543C40.1759 18.1445 40.1466 18.125 40.127 18.1152C40.0977 18.0957 40.0684 18.0762 40.0294 18.0664C40.0098 18.0566 40.0001 18.0469 39.9805 18.0371C39.961 18.0273 39.9415 18.0176 39.9122 18.0078C39.9024 17.998 39.8927 17.998 39.8829 17.9883C39.8438 17.9687 39.795 17.9395 39.7559 17.9199H39.7462C39.4825 17.4512 39.1895 16.9824 38.877 16.5137C35.2345 11.1816 31.2403 8.59375 26.6798 8.58398H26.6602C24.7266 8.58398 22.9591 9.02344 21.4845 9.45313C21.0645 9.58008 20.6251 9.70703 20.2052 9.84375C19.1309 10.1758 18.1153 10.498 17.2462 10.6348C16.6993 10.7227 16.2696 10.9277 15.9669 11.2402C15.6934 11.5332 15.5274 11.9336 15.4786 12.4219C15.3809 13.3691 15.7227 14.6484 16.4649 16.1133C17.9591 19.082 20.8204 22.3535 23.7501 24.4531C24.0919 24.6973 24.4044 24.9609 24.6973 25.2539C24.6387 25.2637 24.5802 25.2734 24.5118 25.2832C22.2169 25.6152 21.0157 28.0762 20.5372 29.4141C20.4102 29.7656 20.752 30.0781 21.1036 29.9512C22.5294 29.4727 25.4298 28.6914 27.0606 29.6973C27.0704 29.6973 27.0899 29.6875 27.0997 29.6875C27.3927 31.1523 27.2559 32.5977 26.6993 33.7207C25.9669 35.1953 24.5704 36.0645 22.7638 36.1523C20.6348 36.2598 18.0177 35.3516 14.9805 33.457L14.9317 33.4277C14.9024 33.418 14.8731 33.3984 14.8536 33.3789C17.2169 30.6934 15.8204 26.5527 15.2735 25.1953C15.2052 25.0195 14.9513 25.0195 14.8536 25.1855C13.5841 27.3438 10.9669 27.1777 11.0157 29.7461C11.0157 29.7461 11.0157 29.7461 11.0157 29.7363C9.02352 28.1152 7.53914 30.2734 5.05867 29.9512C4.86336 29.9219 4.71687 30.1172 4.81453 30.2832C5.56648 31.582 8.08602 35.3906 11.8067 34.9609L11.6309 35.0879L12.295 35.8203C15.547 39.4043 19.4141 41.5527 23.4864 42.0312C24.0723 42.0996 24.6583 42.1387 25.2442 42.1387C28.6524 42.1387 32.0411 40.9961 34.9513 38.8281C38.2911 36.3477 40.6055 32.8418 41.4747 28.9648C41.7677 27.6758 41.8848 26.3867 41.836 25.1074C42.5684 24.8145 43.3692 25.1367 44.004 25.5664C44.0138 25.5664 44.0137 25.5762 44.0235 25.5762C44.0528 25.5957 44.0723 25.6152 44.1016 25.625C44.1114 25.625 44.1114 25.6348 44.1212 25.6348C44.1993 25.6836 44.2677 25.7422 44.336 25.791C44.3458 25.8008 44.3653 25.8105 44.3751 25.8203C44.3946 25.8301 44.4044 25.8496 44.4239 25.8594C44.4434 25.8691 44.4532 25.8887 44.4727 25.8984C44.4825 25.9082 44.502 25.918 44.5118 25.9375C44.5411 25.957 44.5704 25.9863 44.5899 26.0059C44.5997 26.0156 44.6095 26.0254 44.6192 26.0254C44.6388 26.0449 44.6583 26.0645 44.6778 26.0742C44.6876 26.084 44.6973 26.0937 44.7071 26.1035C44.7266 26.123 44.7462 26.1328 44.7657 26.1523C44.7755 26.1621 44.7852 26.1621 44.7852 26.1719C44.8048 26.1914 44.8341 26.2207 44.8536 26.2402C44.8634 26.25 44.8731 26.25 44.8731 26.2598C44.922 26.2988 44.9805 26.3086 45.0294 26.3086C45.088 26.3184 45.1856 26.2305 45.1759 26.1133ZM33.4864 37.5488C33.5352 37.5781 33.5938 37.5879 33.672 37.5977C30.6641 39.7656 27.1095 40.7324 23.6427 40.3223C20.2052 39.9219 16.9141 38.1641 14.0626 35.2246C14.1016 35.1465 14.1407 35.0781 14.17 35C17.461 37.0215 20.3712 37.9883 22.8223 37.8711C25.2833 37.7539 27.2071 36.543 28.2227 34.4824C29.0723 32.7637 29.1798 30.5566 28.5352 28.4082C27.8809 26.2402 26.5333 24.3359 24.7266 23.0469C22.2657 21.2891 19.8731 18.6523 18.418 16.1426L18.4473 15.8984C18.4473 15.8984 17.8809 15.0293 18.8966 14.8828C27.0411 13.7109 43.6036 29.1797 33.4864 37.5488Z" fill="black"/>
<path d="M27.373 14.3066C27.0898 13.9063 26.5234 12.832 28.2812 12.832C30.039 12.832 32.7148 14.8145 33.2617 15.5469C33.0957 15.9961 31.9629 16.0938 31.3964 16.0547C30.83 16.0156 29.873 15.918 29.1308 15.5469C28.3984 15.1953 27.6562 14.707 27.373 14.3066Z" fill="white"/>
</g>
<defs>
<clipPath id="clip0_64_34">
<rect width="50" height="50" fill="white"/>
</clipPath>
</defs>
</svg>
