<svg width="50" height="50" viewBox="0 0 50 50" fill="none" xmlns="http://www.w3.org/2000/svg">
<g clip-path="url(#clip0_64_30)">
<path d="M25 50C38.8071 50 50 38.8071 50 25C50 11.1929 38.8071 0 25 0C11.1929 0 0 11.1929 0 25C0 38.8071 11.1929 50 25 50Z" fill="#E6DAFE"/>
<path d="M29.6289 22.3145C29.6289 24.3359 27.998 25.9766 25.9766 25.9766V29.6387C30.0098 29.6387 33.2715 26.3672 33.2715 22.3242C33.2715 18.2813 30 15.0098 25.9766 15.0098C24.6484 15.0098 23.3984 15.3613 22.3242 15.9863C20.1465 17.2461 18.6719 19.6191 18.6719 22.3242V40.6152L21.9531 43.9063L22.3242 44.2773V22.3145C22.3242 20.293 23.9551 18.6523 25.9766 18.6523C27.998 18.6523 29.6289 20.3027 29.6289 22.3145Z" fill="black"/>
<path d="M25.9766 7.68555C23.3203 7.68555 20.8301 8.39844 18.6816 9.64844C17.3047 10.4395 16.0742 11.4551 15.0293 12.6465C12.7637 15.2246 11.377 18.6133 11.377 22.3242V33.3008L15.0293 36.9629V22.3145C15.0293 19.0625 16.4355 16.1426 18.6816 14.1309C19.7363 13.1836 20.9668 12.4414 22.334 11.9629C23.4766 11.5527 24.707 11.3379 25.9863 11.3379C32.0313 11.3379 36.9336 16.25 36.9336 22.3145C36.9336 28.3789 32.0215 33.291 25.9766 33.291V36.9531C34.0332 36.9531 40.5664 30.4004 40.5664 22.3242C40.5664 14.248 34.0332 7.68555 25.9766 7.68555Z" fill="black"/>
</g>
<defs>
<clipPath id="clip0_64_30">
<rect width="50" height="50" fill="white"/>
</clipPath>
</defs>
</svg>
