<svg width="50" height="50" viewBox="0 0 50 50" fill="none" xmlns="http://www.w3.org/2000/svg">
<g clip-path="url(#clip0_84_12)">
<path d="M25 48.5C37.9787 48.5 48.5 37.9787 48.5 25C48.5 12.0213 37.9787 1.5 25 1.5C12.0213 1.5 1.5 12.0213 1.5 25C1.5 37.9787 12.0213 48.5 25 48.5Z" fill="#161523" stroke="#6764FB" stroke-width="13.92"/>
<path fill-rule="evenodd" clip-rule="evenodd" d="M35.0001 16C35.0001 15.4477 34.5522 15 34.0001 15L18.9631 15C18.306 15 17.731 15.0953 17.2382 15.2859C16.7454 15.4912 16.3347 15.7625 16.0062 16.0997C15.6639 16.4516 15.4107 16.8475 15.2464 17.2874C15.0822 17.7419 15 18.2111 15 18.695V20.9114C15 22.0648 15.9351 23 17.0886 23H29.0001L23.0001 19H34.0001C34.5522 19 35.0001 18.5523 35.0001 18V16ZM15 34C15 34.5523 15.4477 35 16 35H31.0369C31.6941 35 32.2691 34.9047 32.7617 34.714C33.2546 34.5088 33.6654 34.2375 33.9938 33.9002C34.3361 33.5485 34.5893 33.1526 34.7535 32.7127C34.9178 32.258 35.0001 31.7888 35.0001 31.3049V29.0886C35.0001 27.9351 34.065 27 32.9113 27H21L27.0001 31H16C15.4477 31 15 31.4476 15 32V34Z" fill="#6764FB"/>
</g>
<defs>
<clipPath id="clip0_84_12">
<rect width="50" height="50" rx="25" fill="white"/>
</clipPath>
</defs>
</svg>
