<svg width="50" height="50" viewBox="0 0 50 50" fill="none" xmlns="http://www.w3.org/2000/svg">
<g clip-path="url(#clip0_82_2)">
<path fill-rule="evenodd" clip-rule="evenodd" d="M9.15497 0.245388L0.0382134 22.2591C0.00352157 22.341 -0.00747206 22.4335 0.00684025 22.5231C0.0211526 22.6127 0.06002 22.6946 0.117759 22.757L24.7399 49.8796C24.8099 49.9567 24.903 49.9998 24.9999 49.9998C25.0968 49.9998 25.19 49.9567 25.2599 49.8796L49.8821 22.7587C49.9398 22.6963 49.9787 22.6144 49.993 22.5248C50.0073 22.4352 49.9963 22.3427 49.9616 22.2608L40.8449 0.247081C40.8154 0.17315 40.7681 0.11052 40.7086 0.066678C40.649 0.0228359 40.5797 -0.000364463 40.509 -0.000150335H9.49377C9.42271 -0.00116663 9.35291 0.0214749 9.29279 0.065043C9.23268 0.108611 9.18481 0.171244 9.15497 0.245388Z" fill="#50AF95"/>
<path fill-rule="evenodd" clip-rule="evenodd" d="M28.1635 24.52C27.9867 24.5352 27.0734 24.5979 25.0362 24.5979C23.4158 24.5979 22.2653 24.542 21.8617 24.52C15.5998 24.2033 10.9257 22.9502 10.9257 21.4499C10.9257 19.9496 15.5998 18.6982 21.8617 18.3764V23.272C22.2712 23.3058 23.4438 23.3854 25.0642 23.3854C27.0086 23.3854 27.9823 23.2923 28.1576 23.2736V18.3798C34.4063 18.6999 39.07 19.953 39.07 21.4499C39.07 22.9468 34.4078 24.1999 28.1576 24.5183L28.1635 24.52ZM28.1635 17.8735V13.4928H36.884V6.81244H13.1412V13.4928H21.8603V17.8718C14.7734 18.246 9.44385 19.8598 9.44385 21.7936C9.44385 23.7275 14.7734 25.3396 21.8603 25.7155V39.7535H28.162V25.7104C35.2327 25.3362 40.5534 23.7241 40.5534 21.792C40.5534 19.8598 35.2371 18.2477 28.162 17.8718L28.1635 17.8735Z" fill="white"/>
</g>
<defs>
<clipPath id="clip0_82_2">
<rect width="50" height="50" fill="white"/>
</clipPath>
</defs>
</svg>
