<svg width="50" height="50" viewBox="0 0 50 50" fill="none" xmlns="http://www.w3.org/2000/svg">
<g clip-path="url(#clip0_64_39)">
<mask id="mask0_64_39" style="mask-type:luminance" maskUnits="userSpaceOnUse" x="0" y="0" width="50" height="50">
<path d="M50 0H0V50H50V0Z" fill="white"/>
</mask>
<g mask="url(#mask0_64_39)">
<path d="M25 50C38.8542 50 50 38.8542 50 25C50 11.1458 38.8542 0 25 0C11.1458 0 0 11.1458 0 25C0 38.8542 11.1458 50 25 50Z" fill="#2775CA"/>
<path d="M31.875 28.9583C31.875 25.3125 29.6875 24.0625 25.3125 23.5418C22.1875 23.125 21.5625 22.2918 21.5625 20.8333C21.5625 19.3748 22.6042 18.4375 24.6875 18.4375C26.5625 18.4375 27.6042 19.0625 28.125 20.625C28.2292 20.9375 28.5417 21.1458 28.8542 21.1458H30.5208C30.9375 21.1458 31.25 20.8333 31.25 20.4168V20.3125C30.8332 18.0208 28.9582 16.25 26.5625 16.0418V13.5418C26.5625 13.125 26.25 12.8125 25.7292 12.7083H24.1667C23.75 12.7083 23.4375 13.0208 23.3332 13.5418V15.9375C20.2082 16.3543 18.2292 18.4375 18.2292 21.0418C18.2292 24.4793 20.3125 25.8333 24.6875 26.3543C27.6042 26.875 28.5417 27.5 28.5417 29.1668C28.5417 30.8335 27.0832 31.9793 25.1042 31.9793C22.3957 31.9793 21.4582 30.8333 21.1457 29.2708C21.0417 28.8543 20.7292 28.6458 20.4167 28.6458H18.6457C18.2292 28.6458 17.9167 28.9583 17.9167 29.375V29.4793C18.3332 32.0833 20 33.9583 23.4375 34.4793V36.9793C23.4375 37.3958 23.75 37.7083 24.2707 37.8125H25.8332C26.25 37.8125 26.5625 37.5 26.6667 36.9793V34.4793C29.7917 33.9583 31.875 31.7708 31.875 28.9583Z" fill="white"/>
<path d="M19.6876 39.8957C11.5626 36.9792 7.39583 27.9167 10.4168 19.8957C11.9793 15.5207 15.4168 12.1875 19.6876 10.625C20.1043 10.4167 20.3126 10.1042 20.3126 9.58325V8.125C20.3126 7.70825 20.1043 7.39575 19.6876 7.29175C19.5833 7.29175 19.3751 7.29175 19.2708 7.39575C9.37508 10.5207 3.95833 21.0417 7.08333 30.9375C8.95833 36.7707 13.4376 41.25 19.2708 43.125C19.6876 43.3333 20.1043 43.125 20.2083 42.7083C20.3126 42.6042 20.3126 42.5 20.3126 42.2917V40.8332C20.3126 40.5207 20.0001 40.1042 19.6876 39.8957ZM30.7293 7.39575C30.3126 7.1875 29.8958 7.39575 29.7918 7.8125C29.6876 7.91675 29.6876 8.02075 29.6876 8.22925V9.6875C29.6876 10.1042 30.0001 10.5207 30.3126 10.7292C38.4376 13.6457 42.6042 22.7082 39.5833 30.7292C38.0208 35.1042 34.5833 38.4375 30.3126 40C29.8958 40.2082 29.6876 40.5207 29.6876 41.0417V42.5C29.6876 42.9167 29.8958 43.2292 30.3126 43.3333C30.4168 43.3333 30.6251 43.3333 30.7293 43.2292C40.6251 40.1042 46.0417 29.5832 42.9167 19.6875C41.0418 13.75 36.4583 9.27075 30.7293 7.39575Z" fill="white"/>
</g>
</g>
<defs>
<clipPath id="clip0_64_39">
<rect width="50" height="50" fill="white"/>
</clipPath>
</defs>
</svg>
