<svg width="50" height="50" viewBox="0 0 50 50" fill="none" xmlns="http://www.w3.org/2000/svg">
<g clip-path="url(#clip0_64_28)">
<path d="M25 0C11.1917 0 0 11.1917 0 25C0 38.8083 11.1917 50 25 50C38.8083 50 50 38.8083 50 25C50 11.1917 38.8083 0 25 0ZM37.4167 28.9167C36.3333 26.5 32.3333 21.1667 26.5 21.75C20.4167 22.4167 13.5 25.8333 11.5 30.8333C8.41667 28.4167 11.0833 24.25 12.9167 22.3333C12.5 20.5 13.6667 16.5 14.3333 14.8333C14.5833 13.4167 15.75 12.4167 16.3333 12.1667C16.25 11.1667 18 10.6667 18.8333 10.5L18.9167 10.3333C19.1667 9.58333 19.4167 8.66667 21.5833 8C23.4167 7.33333 25.0833 9 25.75 9.91667C25.9167 9.41667 26.5833 8.66667 27.25 9.25C33.25 10.1667 35.25 16.75 35.5833 19.8333C36.75 20.6667 39.1667 22.8333 39.75 24.8333C40.3333 27.25 39.6667 27.75 38.8333 28.4167L38.6667 28.5833C38.25 29.0833 37.75 29.0833 37.4167 28.9167ZM36.25 31.5C34.9417 36.9833 30.5417 41.1917 25 42.25C21.5 42.25 15.9167 36.75 14.3333 34.1667C11.0833 33.9167 11.8333 32.25 12.5833 31.5L12.1667 31.3333C13.6667 27.8333 17.9167 23.6667 26.25 22.6667C30.8333 22.0833 34.3333 25.3333 36.4167 28.6667C36.5 29.75 36.4167 30.9167 36.25 31.5ZM18 27.3333C18.5 28.5833 20 30.5833 22.1667 28.25C22 27.5833 20.8333 26.4167 18 27.3333ZM21.3333 39.1667C21 38.6667 23 38.4167 24 38.3333L25.3333 38C25.5833 36.9167 25.0833 36.8333 24.8333 36.9167C22.8333 37.0833 23 34.75 23.5 34C24.0833 33.3333 25.3333 33.5833 25.75 33.6667C26.1667 33.8333 26.8333 33.6667 27.0833 33.5833C28.3333 33.5 28.25 35 28 35.75C27.9167 36.75 26.5 37.0833 25.8333 37.0833C25.75 37.8333 25.9167 38.1667 26.0833 38.1667L28.9167 38.8333C30 39.25 29.4167 39.3333 28.9167 39.4167C27.5 38.5 26.5 38.8333 25.8333 39L25.3333 39.1667C24.1667 38.75 22.9167 38.8333 22.4167 39C22.1667 39.25 21.5833 39.5833 21.3333 39.1667ZM28.75 28.6667C28.8333 27.6667 29.8333 26 32.75 27.5C32.3333 28.5 30.9167 30.0833 28.75 28.6667Z" fill="#EFBFA8"/>
</g>
<defs>
<clipPath id="clip0_64_28">
<rect width="50" height="50" fill="white"/>
</clipPath>
</defs>
</svg>
